<?xml version="1.0" encoding="utf-8"?>
<!-- Generator: Adobe Illustrator 26.0.3, SVG Export Plug-In . SVG Version: 6.00 Build 0)  -->
<svg version="1.0" id="katman_1" xmlns="http://www.w3.org/2000/svg" xmlns:xlink="http://www.w3.org/1999/xlink" x="0px" y="0px"
	 viewBox="0 0 600 450" style="enable-background:new 0 0 600 450;" xml:space="preserve">
<style type="text/css">
	.st0{fill:#010202;}
</style>
<path class="st0" d="M425.2,164.6c-4.2-1.4-8.3-2.7-12.5-3.9c0.7-2.9,1.3-5.7,1.9-8.6c9.5-46,3.2-82.9-17.8-95.1
	c-20.3-11.6-53.4,0.5-86.8,29.6c-3.3,2.9-6.6,5.9-9.6,8.9c-2.1-2-4.2-4-6.4-5.9c-35.1-31.2-70.3-44.3-91.3-32
	c-20.2,11.7-26.2,46.5-17.7,90c0.8,4.3,1.8,8.6,2.9,12.9c-4.9,1.4-9.8,2.9-14.3,4.5c-41.2,14.3-70.7,36.8-70.7,60.1
	c0,24.1,31.5,48.2,74.3,62.9c3.5,1.2,6.9,2.3,10.5,3.3c-1.2,4.6-2.2,9.2-3.1,13.9c-8.1,42.8-1.8,76.7,18.4,88.4
	c20.8,12,55.8-0.3,89.9-30.2c2.7-2.4,5.4-4.9,8.1-7.5c3.4,3.3,6.9,6.5,10.5,9.6c33,28.4,65.6,39.9,85.8,28.2
	c20.8-12,27.6-48.5,18.8-92.9c-0.7-3.4-1.5-6.9-2.3-10.4c2.5-0.7,4.9-1.5,7.2-2.2c44.5-14.7,76.7-38.6,76.7-63
	C497.5,201.7,467.2,179,425.2,164.6L425.2,164.6z M320.9,99.1c28.7-25,55.4-34.8,67.6-27.8c13,7.5,18,37.7,9.9,77.4
	c-0.5,2.6-1.1,5.2-1.8,7.7c-17.1-3.9-34.5-6.6-51.9-8.2c-10-14.3-21-28.1-32.9-40.9C314.9,104.5,317.8,101.8,320.9,99.1z M231.6,265
	c3.9,6.7,7.9,13.4,12.2,20c-12-1.3-24-3.2-35.8-5.8c3.4-11.1,7.6-22.6,12.6-34.3C224.2,251.7,227.8,258.4,231.6,265L231.6,265z
	 M208.3,172.3c11.1-2.5,22.9-4.5,35.2-6c-4.1,6.4-8.1,13-11.9,19.6c-3.8,6.6-7.5,13.3-11,20.1C215.8,194.4,211.7,183.1,208.3,172.3
	L208.3,172.3z M229.4,225.4c5.1-10.6,10.6-21.1,16.5-31.3s12.2-20.2,18.8-30c11.6-0.8,23.4-1.3,35.4-1.3c12,0,23.9,0.5,35.4,1.3
	c6.6,9.7,12.8,19.7,18.7,29.8c5.9,10.2,11.5,20.6,16.7,31.2c-5.2,10.6-10.7,21.1-16.7,31.5c-5.9,10.3-12.1,20.2-18.7,30.1
	c-11.5,0.8-23.4,1.2-35.6,1.2s-23.8-0.4-35.2-1.1c-6.7-9.8-13-19.8-19-30.1C240,246.5,234.6,236,229.4,225.4L229.4,225.4z
	 M368.7,264.9c3.9-6.8,7.6-13.6,11.3-20.6c4.9,11.2,9.3,22.5,13,34.2c-12,2.7-24.1,4.8-36.2,6.2
	C360.9,278.2,364.8,271.5,368.7,264.9L368.7,264.9z M379.8,205.9c-3.6-6.8-7.3-13.6-11.2-20.2c-3.8-6.6-7.7-13-11.8-19.4
	c12.4,1.5,24.3,3.6,35.4,6.2C388.7,183.8,384.5,194.9,379.8,205.9z M300.3,119.1c8.1,8.8,15.7,18,22.8,27.6
	c-15.3-0.7-30.6-0.7-45.9,0C284.8,136.8,292.6,127.5,300.3,119.1z M210.8,71.9c13-7.6,41.7,3.2,72,30.1c1.9,1.7,3.9,3.5,5.9,5.4
	c-12,12.9-23,26.6-33.1,40.9c-17.4,1.5-34.7,4.2-51.8,8c-1-3.9-1.9-7.9-2.7-12C193.9,107,198.6,78.9,210.8,71.9L210.8,71.9z
	 M191.9,275.1c-3.2-0.9-6.4-1.9-9.6-3c-16.4-5.2-35.1-13.3-48.6-24.1c-7.8-5.4-13-13.7-14.5-23.1c0-14.1,24.4-32.2,59.5-44.4
	c4.4-1.5,8.9-2.9,13.3-4.2c5.2,16.7,11.6,33.2,18.9,49C203.6,241.5,197.2,258.2,191.9,275.1z M281.8,350.7
	c-12.7,11.6-27.5,20.9-43.5,27.2c-8.6,4.1-18.4,4.5-27.2,1c-12.3-7.1-17.4-34.3-10.4-70.9c0.8-4.3,1.8-8.6,2.9-12.9
	c17.3,3.7,34.7,6.2,52.4,7.6c10.2,14.4,21.4,28.2,33.3,41.2C286.8,346.2,284.3,348.6,281.8,350.7L281.8,350.7z M300.7,332
	c-7.9-8.5-15.7-17.9-23.4-28c7.4,0.3,15,0.5,22.7,0.5c7.9,0,15.7-0.2,23.4-0.5C316.5,313.7,308.8,323,300.7,332z M401.5,355.1
	c-0.7,9.4-5.3,18.2-12.7,24.1c-12.3,7.1-38.4-2.2-66.6-26.4c-3.2-2.8-6.5-5.8-9.8-8.9c11.8-13,22.7-26.8,32.5-41.3
	c17.7-1.5,35.2-4.2,52.6-8.1c0.8,3.2,1.5,6.3,2.1,9.4C403.4,320.6,404,338,401.5,355.1L401.5,355.1z M415.6,272.2
	c-2.2,0.7-4.3,1.4-6.6,2c-5.4-16.8-12-33.2-19.7-49.2c7.4-15.7,13.6-31.9,18.9-48.5c4,1.2,7.9,2.4,11.6,3.6
	c35.9,12.3,61.2,30.7,61.2,44.7C481,240,454.1,259.5,415.6,272.2z M300.1,260.6c19.5,0,35.3-15.8,35.3-35.3S319.6,190,300.1,190
	c-19.5,0-35.3,15.8-35.3,35.3S280.6,260.6,300.1,260.6L300.1,260.6z"/>
</svg>
